<svg width="48" height="56" viewBox="0 0 48 56" fill="none" xmlns="http://www.w3.org/2000/svg">
<path d="M21.5971 33.8733V27.2067H26.9305V33.8733C26.9305 34.6067 27.5305 35.2067 28.2638 35.2067H32.2638C32.9971 35.2067 33.5971 34.6067 33.5971 33.8733V24.54H35.8638C36.4771 24.54 36.7705 23.78 36.3038 23.38L25.1571 13.34C24.6505 12.8867 23.8771 12.8867 23.3705 13.34L12.2238 23.38C11.7705 23.78 12.0505 24.54 12.6638 24.54H14.9305V33.8733C14.9305 34.6067 15.5305 35.2067 16.2638 35.2067H20.2638C20.9971 35.2067 21.5971 34.6067 21.5971 33.8733Z" fill="#AAAEB9"/>
<rect x="22" y="46" width="4" height="4" rx="2" fill="#AAAEB9"/>
</svg>
