<svg width="250" height="250" viewBox="0 0 250 250" fill="none" xmlns="http://www.w3.org/2000/svg">
<rect width="250" height="250" fill="white"/>
<path d="M65.4167 59.1667V191.667L89.1667 163.333V126.25L103.75 144.583L207.083 15.4167L204.167 12.5L116.25 122.5L65.4167 59.1667Z" fill="black"/>
<path d="M184.583 193.333V57.9167L42.5 234.583L45.8333 237.917L111.667 155.417L125 170.833L160.417 126.25V193.333H184.583Z" fill="black"/>
<path d="M65.4167 59.1667V191.667L89.1667 163.333V126.25L103.75 144.583L207.083 15.4167L204.167 12.5L116.25 122.5L65.4167 59.1667Z" stroke="black"/>
<path d="M184.583 193.333V57.9167L42.5 234.583L45.8333 237.917L111.667 155.417L125 170.833L160.417 126.25V193.333H184.583Z" stroke="black"/>
</svg>
