<svg width="48" height="48" viewBox="0 0 48 48" fill="none" xmlns="http://www.w3.org/2000/svg">
<path d="M20.9676 17.8712C18.9276 20.1612 17.5276 23.4512 17.3976 23.7612L15.1376 22.7912C14.4876 22.5112 14.3276 21.6612 14.8276 21.1612L17.8376 18.1512C18.3076 17.6812 18.9876 17.4712 19.6476 17.6012L20.9676 17.8712ZM22.4576 28.0312C22.7576 28.3312 23.1976 28.4112 23.5776 28.2312C24.7376 27.6912 27.2276 26.4212 28.8376 24.8112C33.4276 20.2212 33.4676 16.4812 33.1976 14.8812C33.1276 14.4812 32.8076 14.1612 32.4076 14.0912C30.8076 13.8212 27.0676 13.8612 22.4776 18.4512C20.8676 20.0612 19.6076 22.5512 19.0576 23.7112C18.8776 24.0912 18.9676 24.5412 19.2576 24.8312L22.4576 28.0312ZM29.4276 26.3312C27.1376 28.3712 23.8476 29.7712 23.5376 29.9012L24.5076 32.1612C24.7876 32.8112 25.6376 32.9712 26.1376 32.4712L29.1476 29.4612C29.6176 28.9912 29.8276 28.3112 29.6976 27.6512L29.4276 26.3312ZM20.7176 28.9312C20.9176 29.9912 20.5676 30.9712 19.8976 31.6412C19.1276 32.4112 16.7376 32.9812 15.1876 33.2812C14.4976 33.4112 13.8876 32.8012 14.0176 32.1112C14.3176 30.5612 14.8776 28.1712 15.6576 27.4012C16.3276 26.7312 17.3076 26.3812 18.3676 26.5812C19.5376 26.8012 20.4976 27.7612 20.7176 28.9312ZM24.7776 20.5212C24.7776 19.4212 25.6776 18.5212 26.7776 18.5212C27.8776 18.5212 28.7776 19.4212 28.7776 20.5212C28.7776 21.6212 27.8776 22.5212 26.7776 22.5212C25.6776 22.5212 24.7776 21.6212 24.7776 20.5212Z" fill="#656A7B"/>
</svg>
